<svg width="25" height="25" viewBox="0 0 25 25" fill="none" xmlns="http://www.w3.org/2000/svg">
<path d="M11.6801 0.0374548C11.5234 0.101135 11.3129 0.213801 11.215 0.28238C11.1122 0.350959 8.63975 2.80511 5.71202 5.73442C1.42325 10.0353 0.370645 11.113 0.267832 11.3187C-0.20217 12.269 -0.0455025 13.3075 0.674188 14.0325C1.12461 14.4782 1.69742 14.7134 2.35347 14.7134H2.68639V18.6322C2.68639 21.2823 2.70597 22.6294 2.74024 22.8057C2.92628 23.6972 3.64597 24.5055 4.53702 24.8141C4.86014 24.9268 4.88462 24.9268 7.24932 24.9268C9.57975 24.9268 9.6336 24.9268 9.76579 24.8239C9.83923 24.77 9.94694 24.6622 10.0008 24.5888C10.1036 24.4565 10.1036 24.3928 10.1281 21.1843L10.1526 17.9121L10.2994 17.6721C10.4855 17.3733 10.8625 17.1332 11.2248 17.0892C11.3618 17.0696 12.0473 17.0647 12.7474 17.0745L14.0203 17.0892L14.2798 17.2312C14.5246 17.3684 14.6812 17.53 14.833 17.7994C14.8869 17.9023 14.9064 18.5048 14.926 21.1892C14.9505 24.3928 14.9505 24.4565 15.0533 24.5888C15.1072 24.6622 15.2149 24.77 15.2883 24.8239C15.4205 24.9268 15.4744 24.9268 17.8048 24.9268C20.1695 24.9268 20.194 24.9268 20.5171 24.8141C21.4081 24.5055 22.1278 23.6972 22.3139 22.8057C22.3481 22.6294 22.3677 21.2823 22.3677 18.6322V14.7134H22.7006C23.6211 14.7134 24.424 14.2235 24.8205 13.4153C24.987 13.0773 24.987 13.0675 24.987 12.4111C24.987 11.2942 25.55 11.9555 19.2638 5.67074C13.0166 -0.584655 13.6433 -0.0458198 12.576 -0.0703123C12.0228 -0.0801093 11.9396 -0.0703123 11.6801 0.0374548ZM12.8893 1.43843C13.1782 1.57559 23.4105 11.8282 23.5183 12.078C23.6211 12.3278 23.6113 12.5384 23.4889 12.7834C23.3077 13.1605 23.156 13.2144 22.2111 13.2438C21.3249 13.2683 21.2613 13.2879 21.0263 13.6063C20.9234 13.7386 20.9234 13.7925 20.899 18.1815L20.8745 22.6245L20.7374 22.8547C20.664 22.9821 20.5318 23.1437 20.4437 23.2074C20.1009 23.4719 19.9981 23.4817 18.1279 23.4817H16.3948V20.7385C16.3948 18.9408 16.3752 17.9121 16.3409 17.7407C16.15 16.8197 15.4107 16.0262 14.4609 15.7274C14.1378 15.6245 14.0301 15.6196 12.5271 15.6196C10.7743 15.6196 10.6862 15.6294 10.0595 15.9478C9.43777 16.2613 8.86006 17.0353 8.71318 17.7407C8.67891 17.9121 8.65933 18.9408 8.65933 20.7385V23.4817H6.9262C5.05598 23.4817 4.95317 23.4719 4.61046 23.2074C4.52233 23.1437 4.39014 22.9821 4.3167 22.8547L4.17962 22.6245L4.15514 18.1815C4.13066 13.7925 4.13066 13.7386 4.02785 13.6063C3.79285 13.2879 3.7292 13.2683 2.84305 13.2438C1.89815 13.2144 1.74638 13.1605 1.56523 12.7834C1.44284 12.5384 1.43305 12.3278 1.53586 12.078C1.63867 11.8331 11.8759 1.58048 12.1599 1.43843C12.4096 1.31596 12.6397 1.31596 12.8893 1.43843Z" fill="#A2A2A2"/>
</svg>
