<svg width="25" height="25" viewBox="0 0 25 25" fill="none" xmlns="http://www.w3.org/2000/svg">
<rect x="7" y="11.25" width="1.25" height="11" rx="0.5" transform="rotate(-90 7 11.25)" fill="#A3A3A3"/>
<rect x="7" y="15.25" width="1.25" height="11" rx="0.5" transform="rotate(-90 7 15.25)" fill="#A3A3A3"/>
<rect x="7" y="19.25" width="1.25" height="11" rx="0.5" transform="rotate(-90 7 19.25)" fill="#A3A3A3"/>
<path d="M11.9348 0.0360227C11.0801 0.192373 10.3452 0.697904 9.92819 1.42754L9.77704 1.69854L7.4733 1.71418L5.16957 1.72981L4.81515 1.87053C3.92389 2.23013 3.27238 2.98583 3.07953 3.88744C2.97008 4.41382 2.97529 22.3055 3.08474 22.8371C3.29844 23.8377 4.08025 24.6611 5.06533 24.9217C5.33636 24.9895 6.25889 24.9999 12.3883 24.9999C20.123 24.9999 19.68 25.0155 20.3315 24.6716C20.7224 24.4631 21.1758 24.0253 21.3947 23.6396C21.4885 23.4729 21.6084 23.1602 21.6658 22.9361C21.77 22.54 21.77 22.3419 21.77 13.3831C21.77 5.72716 21.7544 4.17408 21.697 3.88744C21.5042 2.98583 20.8527 2.23013 19.9614 1.87053L19.607 1.72981L17.3033 1.71418L14.9995 1.69854L14.8327 1.40148C14.2907 0.442532 13.0242 -0.156809 11.9348 0.0360227ZM12.9251 1.35457C13.2066 1.44838 13.5766 1.73503 13.7069 1.9487C13.7695 2.05815 13.8685 2.27183 13.9258 2.42818C14.0926 2.89201 14.2281 2.95455 15.0881 2.95455H15.7865L15.7657 3.43403C15.7344 4.15845 15.4842 4.57017 14.9161 4.83597L14.6034 4.9871H12.3831H10.1627L9.84479 4.82554C9.27668 4.54411 9.04213 4.15845 9.01086 3.43403L8.99001 2.95455H9.68843C10.5536 2.95455 10.6839 2.89723 10.8507 2.42296C11.1791 1.49529 12.0547 1.04709 12.9251 1.35457ZM7.74954 3.37149C7.74954 3.9135 7.82251 4.25226 8.04663 4.72131C8.26554 5.18515 8.72941 5.66983 9.18807 5.90957C9.77182 6.21706 9.93861 6.2379 12.3674 6.2379C13.6131 6.2379 14.6868 6.21706 14.8432 6.18579C15.2966 6.1024 15.8543 5.79491 16.2139 5.43531C16.7664 4.88287 17.027 4.23141 17.027 3.38191V2.95455H18.1476C19.1431 2.95455 19.2943 2.96498 19.5497 3.05879C19.8884 3.18908 20.2272 3.50699 20.3836 3.84054L20.493 4.07506V13.357V22.6338L20.3367 22.9413C20.1595 23.2853 19.8103 23.5927 19.4767 23.6918C19.336 23.7335 17.3502 23.7491 12.3466 23.7491H5.41454L5.08618 23.5771C4.87769 23.4729 4.69527 23.3269 4.58582 23.1862C4.23661 22.7224 4.25746 23.3791 4.26788 13.2476L4.28352 4.07506L4.4034 3.83533C4.56497 3.50178 4.90375 3.18387 5.22169 3.05879C5.45102 2.97019 5.62302 2.95977 6.61852 2.95977L7.74954 2.95455V3.37149Z" fill="#A3A3A3"/>
</svg>
