<svg width="25" height="25" viewBox="0 0 25 25" fill="none" xmlns="http://www.w3.org/2000/svg">
<path d="M12.5 15.625C14.2259 15.625 15.625 14.2259 15.625 12.5C15.625 10.7741 14.2259 9.375 12.5 9.375C10.7741 9.375 9.375 10.7741 9.375 12.5C9.375 14.2259 10.7741 15.625 12.5 15.625Z" stroke="#A3A3A3" stroke-width="1.5" stroke-miterlimit="10" stroke-linecap="round" stroke-linejoin="round"/>
<path d="M2.0835 13.4167V11.5834C2.0835 10.5 2.96891 9.6042 4.06266 9.6042C5.94808 9.6042 6.71891 8.27087 5.771 6.63545C5.22933 5.69795 5.55225 4.4792 6.50016 3.93754L8.30225 2.90629C9.12516 2.4167 10.1877 2.70837 10.6772 3.53129L10.7918 3.7292C11.7293 5.36462 13.271 5.36462 14.2189 3.7292L14.3335 3.53129C14.8231 2.70837 15.8856 2.4167 16.7085 2.90629L18.5106 3.93754C19.4585 4.4792 19.7814 5.69795 19.2397 6.63545C18.2918 8.27087 19.0627 9.6042 20.9481 9.6042C22.0314 9.6042 22.9272 10.4896 22.9272 11.5834V13.4167C22.9272 14.5 22.0418 15.3959 20.9481 15.3959C19.0627 15.3959 18.2918 16.7292 19.2397 18.3646C19.7814 19.3125 19.4585 20.5209 18.5106 21.0625L16.7085 22.0938C15.8856 22.5834 14.8231 22.2917 14.3335 21.4688L14.2189 21.2709C13.2814 19.6355 11.7397 19.6355 10.7918 21.2709L10.6772 21.4688C10.1877 22.2917 9.12516 22.5834 8.30225 22.0938L6.50016 21.0625C5.55225 20.5209 5.22933 19.3021 5.771 18.3646C6.71891 16.7292 5.94808 15.3959 4.06266 15.3959C2.96891 15.3959 2.0835 14.5 2.0835 13.4167Z" stroke="#A3A3A3" stroke-width="1.5" stroke-miterlimit="10" stroke-linecap="round" stroke-linejoin="round"/>
</svg>
