<svg width="23" height="23" viewBox="0 0 23 23" fill="none" xmlns="http://www.w3.org/2000/svg">
<path d="M13.3643 1.88223C13.2924 1.92715 13.1936 2.00352 13.1531 2.04844C13.1127 2.09785 12.623 3.19395 12.066 4.49219L11.0598 6.85059L10.5701 6.88203C8.44531 7.02578 6.36543 7.66817 4.80215 8.66094L4.52812 8.83613L4.28105 8.68789C3.87227 8.44082 3.53984 8.34649 2.9873 8.32403C2.37637 8.29707 2.02148 8.37344 1.51387 8.63399C0.871484 8.9709 0.345898 9.59981 0.121289 10.3096C0.0449219 10.5611 0.0224609 10.7318 0.0224609 11.1406C0.0224609 11.7381 0.125781 12.1289 0.399805 12.5826C0.588477 12.8926 1.06016 13.3822 1.28477 13.5035L1.4375 13.5889V13.9258C1.4375 15.9922 2.54707 17.852 4.6 19.2311C6.06895 20.2193 7.85234 20.8482 9.8873 21.0953C10.624 21.1852 12.2098 21.1986 12.9375 21.1178C16.1854 20.7629 18.9121 19.3838 20.4305 17.3309C21.1178 16.401 21.4861 15.3588 21.549 14.1818L21.576 13.6068L21.7646 13.4766C22.982 12.6365 23.3549 10.9834 22.6092 9.70313C22.3621 9.28086 21.9174 8.8586 21.4861 8.63399C20.9785 8.37344 20.6236 8.29707 20.0127 8.32403C19.4646 8.34649 19.1502 8.43633 18.7279 8.68789L18.4764 8.83613L18.1215 8.61602C16.7109 7.74453 14.9365 7.15156 13.1262 6.94942C12.8252 6.91797 12.5646 6.87754 12.5512 6.86406C12.5287 6.83711 13.9887 3.37813 14.0516 3.31524C14.0785 3.28828 17.2814 4.1418 17.3174 4.18672C17.3219 4.19571 17.3623 4.32149 17.4072 4.46973C17.4477 4.61797 17.524 4.81563 17.5734 4.91446C17.6947 5.15254 18.1215 5.59727 18.3641 5.73653C19.1816 6.21719 20.2553 6.07793 20.9336 5.39512C21.7602 4.56856 21.7557 3.25235 20.9246 2.42129C20.0756 1.57676 18.7145 1.60371 17.9014 2.47969C17.7666 2.62793 17.6543 2.7627 17.6543 2.78965C17.6543 2.81211 17.6229 2.83008 17.5824 2.83008C17.542 2.83008 16.666 2.59649 15.6328 2.31348C14.6041 2.03047 13.7012 1.79688 13.6293 1.79688C13.5574 1.79688 13.4406 1.83282 13.3643 1.88223ZM19.7072 3.19395C19.9947 3.30176 20.2148 3.62969 20.2148 3.94864C20.2148 4.15977 20.0396 4.44278 19.8285 4.56406C19.6578 4.66289 19.5859 4.68086 19.3793 4.66289C19.1053 4.64043 18.948 4.54609 18.7863 4.30801C18.6426 4.10137 18.6605 3.68809 18.8178 3.46348C19.0064 3.20293 19.4062 3.08164 19.7072 3.19395ZM12.4344 8.24317C14.366 8.3375 16.5088 9.06524 17.9373 10.1164C18.2428 10.3455 18.4719 10.4174 18.7055 10.359C18.7684 10.3455 18.9436 10.2197 19.1008 10.085C19.4871 9.74805 19.7701 9.64473 20.2373 9.66719C20.6775 9.69414 20.9605 9.81992 21.2436 10.1299C21.54 10.4533 21.6299 10.6869 21.6254 11.1406C21.6254 11.4281 21.5984 11.5764 21.5266 11.7336C21.3918 12.0346 21.1133 12.3176 20.8123 12.4613C20.3766 12.6635 20.3316 12.6994 20.2193 12.9105C20.1205 13.1037 20.116 13.1352 20.1654 13.4541C20.2643 14.1234 20.1879 14.7658 19.9273 15.4531C19.6893 16.0955 19.3658 16.5672 18.7324 17.2096C18.0676 17.8789 17.4611 18.3012 16.5268 18.7504C15.0084 19.4826 13.4092 19.824 11.5 19.824C9.11016 19.824 7.07969 19.258 5.3457 18.1125C4.66738 17.6633 3.81836 16.8232 3.46348 16.2438C3.16699 15.7631 2.94687 15.1926 2.85254 14.667C2.77168 14.1998 2.76719 13.9123 2.83457 13.4586C2.88398 13.1396 2.87949 13.1082 2.78066 12.9105C2.67285 12.6994 2.64141 12.677 2.20117 12.4658C1.88223 12.3131 1.66211 12.093 1.50039 11.7785C1.38809 11.5584 1.37012 11.473 1.37012 11.1406C1.37012 10.8441 1.39258 10.7094 1.46895 10.5477C1.59922 10.2647 1.9002 9.94571 2.17871 9.80196C2.37637 9.69864 2.45723 9.68067 2.83008 9.68067C3.3332 9.68067 3.52187 9.75254 3.92617 10.1074C4.33945 10.4713 4.58652 10.4713 5.0627 10.1164C6.25312 9.24043 7.78496 8.63848 9.52344 8.35547C10.1389 8.25664 11.2305 8.18027 11.6797 8.20274C11.8145 8.21172 12.1559 8.22969 12.4344 8.24317Z" fill="#2E0C19"/>
<path d="M7.32671 10.5387C6.85054 10.6644 6.33394 11.0597 6.08238 11.482C5.68706 12.1558 5.69605 13.0588 6.10933 13.7012C7.06167 15.1836 9.25835 14.9455 9.87378 13.2924C10.305 12.1379 9.62222 10.8486 8.42281 10.5342C8.09488 10.4488 7.64566 10.4533 7.32671 10.5387ZM8.18921 11.8773C8.40933 11.9672 8.61597 12.2277 8.64742 12.4568C8.69683 12.7847 8.49468 13.1486 8.18921 13.2789C7.86128 13.4181 7.45249 13.2924 7.24585 12.9869C7.12456 12.8072 7.1066 12.4209 7.20542 12.2277C7.3896 11.8728 7.81636 11.7201 8.18921 11.8773Z" fill="#2E0C19"/>
<path d="M14.559 10.5387C13.5797 10.7992 12.8924 11.792 13.0047 12.7758C13.1709 14.2537 14.7072 15.1117 16.0324 14.4693C16.3379 14.3256 16.7018 13.9977 16.8904 13.7012C17.3037 13.0588 17.3127 12.1559 16.9174 11.482C16.7781 11.2439 16.3334 10.8172 16.0908 10.6959C15.6506 10.4713 15.0396 10.4084 14.559 10.5387ZM15.5338 11.9357C15.7584 12.102 15.8572 12.2996 15.8572 12.5781C15.8572 12.8881 15.7404 13.0902 15.4754 13.2385C15.0621 13.4721 14.5904 13.2969 14.3973 12.8297C14.249 12.4793 14.4377 12.0391 14.8016 11.8728C14.9902 11.7875 15.3811 11.8234 15.5338 11.9357Z" fill="#2E0C19"/>
<path d="M7.65467 15.9069C7.57381 15.9294 7.44803 16.0192 7.37616 16.1045C7.07069 16.4504 7.16053 16.8682 7.61424 17.1917C8.20721 17.6139 9.29881 18.0497 10.1164 18.1889C11.6976 18.4585 13.3687 18.2428 14.667 17.6049C15.5609 17.1647 15.8709 16.8368 15.7945 16.4235C15.7271 16.0686 15.3228 15.7991 14.9904 15.8934C14.914 15.9159 14.6715 16.0461 14.4513 16.1854C12.8027 17.2276 10.1703 17.2096 8.49022 16.1495C8.08592 15.8979 7.88377 15.835 7.65467 15.9069Z" fill="#2E0C19"/>
</svg>
