<svg width="29" height="18" viewBox="0 0 29 18" fill="none" xmlns="http://www.w3.org/2000/svg">
<path d="M1.22979 0.0839157C0.852191 0.18536 0.609853 0.33189 0.384423 0.591135C-0.173517 1.22234 -0.128431 2.09025 0.54786 4.11349C1.52285 7.02717 3.24175 10.1832 5.141 12.5615C7.56438 15.5992 10.123 17.3237 13.0311 17.8929C13.7412 18.0338 15.4094 18.0338 15.956 17.8986C16.869 17.6675 17.3706 17.2561 17.5397 16.5911C17.5622 16.4953 17.5791 15.7795 17.5735 15.0018C17.5679 14.2184 17.5791 13.4914 17.6017 13.3787L17.6355 13.1814L17.9567 13.3505C18.6443 13.7168 19.5855 14.5791 20.9888 16.1177C22.037 17.2674 22.3526 17.5548 22.8655 17.7971L23.2881 18H25.3452C27.7798 18 27.8137 17.9944 28.3434 17.4646C28.597 17.2054 28.6816 17.0757 28.7605 16.8165C29.1212 15.571 28.2251 14.0831 25.1141 10.775C24.4998 10.1212 23.9926 9.56327 23.9926 9.54636C23.9926 9.52382 24.2406 9.15186 24.5506 8.71227C25.7228 7.03281 26.9683 4.97576 27.5995 3.68517C28.1574 2.54674 28.242 2.27059 28.2476 1.62811C28.2476 1.00255 28.1462 0.754572 27.7629 0.422062C27.3121 0.0388298 27.1994 0.0219231 24.9225 0.0219231C22.9331 0.0219231 22.888 0.0219231 22.5724 0.151546C22.3864 0.224812 22.1103 0.405155 21.9356 0.568592C21.6143 0.856016 21.5805 0.918009 20.9493 2.29313C20.1152 4.09658 19.0275 5.88875 18.0976 6.99336C17.4946 7.70347 17.5453 7.90635 17.5848 4.80668C17.6242 1.33506 17.5848 0.974367 17.0663 0.444605C16.6267 -0.0118904 16.621 -0.0118904 13.4707 0.00501633L10.7711 0.0219231L10.4386 0.190996C9.8525 0.489691 9.50308 1.1209 9.58762 1.72956C9.6327 2.06207 9.83559 2.50166 10.1174 2.87925C10.2414 3.04269 10.3935 3.27939 10.4555 3.40338C10.7035 3.90496 10.7148 4.02895 10.7204 6.43542V8.74045L10.5006 8.49247C10.2188 8.17687 9.44672 6.99899 9.02968 6.24944C8.34775 5.03211 7.67146 3.51046 7.08534 1.893C6.70774 0.85038 6.40341 0.444605 5.7553 0.151546C5.48479 0.0275593 5.42843 0.0219231 3.50663 0.0106525C1.90608 -0.000619888 1.47776 0.0106525 1.22979 0.0839157ZM5.1241 1.893C5.17482 1.94935 5.29317 2.2086 5.38334 2.47348C6.23998 4.88558 7.43476 7.30333 8.607 8.96588C9.06349 9.61962 9.94267 10.5044 10.3484 10.7242C10.9966 11.0736 11.7912 10.9553 12.1575 10.4537C12.5182 9.96904 12.5238 9.89578 12.5238 6.81301C12.5238 4.29383 12.5126 3.97823 12.4168 3.57245C12.3097 3.08778 12.011 2.39458 11.8025 2.11279C11.7292 2.01698 11.6503 1.90427 11.6278 1.86482C11.5939 1.81409 12.0223 1.79719 13.6735 1.79719H15.7644V4.62634C15.77 6.18745 15.7926 7.71474 15.8151 8.0247C15.8715 8.68972 16.0237 9.10113 16.3111 9.35474C16.5703 9.58017 16.7394 9.64217 17.1226 9.63653C17.9567 9.63653 18.943 8.90388 19.963 7.53439C20.9155 6.25507 21.8398 4.66015 22.6513 2.91307C22.8936 2.37767 23.1416 1.90427 23.1923 1.86482C23.26 1.81409 23.6826 1.79719 24.8493 1.79719C26.0666 1.79719 26.416 1.81409 26.416 1.86482C26.416 1.90427 26.3258 2.15224 26.2187 2.41149C25.8468 3.31321 24.6238 5.37026 23.2938 7.32023C22.3639 8.68409 22.1666 9.07859 22.1666 9.5689C22.1723 10.2396 22.3075 10.4424 23.8235 12.0261C24.4998 12.7306 25.4523 13.807 25.92 14.3987C26.4329 15.0412 27.0359 16.0162 27.0359 16.2022C27.0359 16.2135 26.2976 16.2247 25.3903 16.2247H23.7503L23.5079 16.0838C23.3783 16.0049 22.9106 15.5484 22.4653 15.0581C20.4984 12.8771 19.2022 11.795 18.1709 11.4794C17.6129 11.3104 16.9085 11.3498 16.5365 11.5696C16.2153 11.7556 16.0293 12.0205 15.8997 12.477C15.8208 12.7531 15.7982 13.1138 15.787 14.4438C15.77 15.8979 15.7588 16.0838 15.6742 16.1289C15.6235 16.1571 15.2741 16.1966 14.8965 16.2078C12.8789 16.298 10.8444 15.5146 8.93387 13.9197C7.09661 12.3811 5.30444 10.0254 3.82224 7.20188C2.95433 5.53933 2.02443 3.16668 1.87226 2.21987C1.84972 2.09588 1.82154 1.94935 1.80463 1.893C1.78209 1.80282 1.88354 1.79719 3.41083 1.79719C4.89303 1.79719 5.0452 1.80846 5.1241 1.893Z" fill="#2E0C19"/>
</svg>
