<svg width="24" height="24" viewBox="0 0 24 24" fill="none" xmlns="http://www.w3.org/2000/svg">
<path d="M9.07031 2.81245C6.62344 2.93901 4.25156 3.19214 3.51563 3.40776C2.2125 3.78276 1.13906 4.80464 0.65625 6.12651C0.323438 7.04058 0 9.94214 0 11.9999C0 14.0578 0.323438 16.9593 0.65625 17.8734C1.12969 19.1624 2.18438 20.189 3.44531 20.5781C4.21406 20.8124 6.70781 21.0749 9.32812 21.1921C10.6781 21.2531 14.6156 21.2249 15.8203 21.1453C17.8594 21.0046 19.875 20.7703 20.4656 20.5968C21.8531 20.1984 22.9453 19.1203 23.3859 17.7281C23.7047 16.7062 24 13.9828 24 12.0093C24 9.94214 23.6766 7.04058 23.3438 6.12651C22.8469 4.77183 21.7922 3.77808 20.4516 3.39839C19.8234 3.22495 18.1875 3.02808 16.1063 2.87808C14.9531 2.7937 10.2469 2.75151 9.07031 2.81245ZM15.75 4.35464C17.6297 4.49058 19.3313 4.67339 19.9172 4.80933C20.8828 5.02964 21.75 5.88276 22.0078 6.87183C22.0969 7.2187 22.2891 8.54995 22.3922 9.51557C22.5047 10.6031 22.5047 13.3968 22.3922 14.4843C22.2891 15.4593 22.0969 16.7812 22.0031 17.1328C21.8813 17.6109 21.6234 18.0374 21.2109 18.4453C20.7938 18.8671 20.4328 19.0734 19.9172 19.1906C19.3313 19.3265 17.5922 19.514 15.75 19.6453C14.5875 19.7249 10.7812 19.7531 9.375 19.6921C7.18125 19.5937 4.64062 19.3499 3.97031 19.1671C3.07031 18.9281 2.23594 18.0609 1.99219 17.1187C1.89844 16.7718 1.71094 15.4687 1.60781 14.4843C1.50938 13.4999 1.49531 10.7437 1.58438 9.77339C1.66406 8.93432 1.85625 7.50933 1.94531 7.0687C2.16094 6.04214 2.89219 5.1937 3.82031 4.87964C4.40625 4.68745 6.69375 4.43901 9.07031 4.31245C10.0781 4.26089 14.8406 4.28901 15.75 4.35464Z" fill="#2E0C19"/>
<path d="M9.30446 7.80464C9.08414 7.88432 8.86852 8.1187 8.83571 8.32026C8.82164 8.39526 8.81227 10.1062 8.82164 12.1171L8.83571 15.7734L8.94352 15.9281C9.08883 16.1296 9.30446 16.2327 9.56696 16.2374C9.76852 16.2374 9.92321 16.1577 11.442 15.2484C12.356 14.7093 13.7154 13.9031 14.4607 13.4577C15.2107 13.0171 15.8857 12.5812 15.9701 12.4921C16.2326 12.2156 16.2326 11.7703 15.9701 11.5078C15.8388 11.3812 14.667 10.6734 10.7107 8.31557C10.2232 8.02495 9.74508 7.77651 9.65602 7.76245C9.56227 7.74839 9.40758 7.76713 9.30446 7.80464ZM12.2716 10.9921C13.1763 11.5312 13.9216 11.9859 13.9216 11.9999C13.9216 12.0234 10.4623 14.1046 10.3498 14.1468C10.331 14.1562 10.3123 13.1906 10.3123 12.0046V9.84369L10.4716 9.92338C10.556 9.97025 11.367 10.4484 12.2716 10.9921Z" fill="#2E0C19"/>
</svg>
